<svg width="51" height="31" viewBox="0 0 51 31" fill="none" xmlns="http://www.w3.org/2000/svg">
<path d="M49.1925 16.9486L37.9932 16.4727C38.6385 9.43364 41.005 8.73206 43.9273 8.6273L45.0563 8.55494L45.5554 0.805852L44.2591 0.810729C40.4505 0.833815 36.2148 1.24639 33.222 4.11236C30.5985 6.62476 29.2409 10.8538 28.8182 17.4163L28.035 29.5768L48.3236 30.439L49.1925 16.9486Z" fill="#A7C1CA"/>
<path d="M20.2938 30.3053L21.1627 16.815L10.1128 16.3454C10.7582 9.30633 13.0498 8.60158 15.9721 8.49681L17.0264 8.42128L17.5255 0.672193L16.3039 0.680241C12.4953 0.703325 8.22201 1.1143 5.22922 3.98028C2.60599 6.49268 1.21105 10.7201 0.78837 17.2827L0.00514835 29.4431L20.2938 30.3053Z" fill="#A7C1CA"/>
</svg>
